<?xml version="1.0" encoding="utf-8"?>
<!-- Generator: Adobe Illustrator 25.3.1, SVG Export Plug-In . SVG Version: 6.00 Build 0)  -->
<svg version="1.1" id="Layer_1" xmlns="http://www.w3.org/2000/svg" xmlns:xlink="http://www.w3.org/1999/xlink" x="0px" y="0px"
	 viewBox="0 0 429.5 429.5" style="enable-background:new 0 0 429.5 429.5;" xml:space="preserve">
<style type="text/css">
	.st0{fill:#FEF0EE;stroke:#272726;stroke-width:2;stroke-linecap:round;stroke-linejoin:round;}
	.st1{fill:url(#SVGID_1_);}
	.st2{stroke:#000000;stroke-width:0.25;stroke-miterlimit:10;}
</style>
<g id="Layer_2_1_">
	<g id="Layer_1-2">
		<circle class="st0" cx="214.8" cy="214.2" r="191"/>
		
			<linearGradient id="SVGID_1_" gradientUnits="userSpaceOnUse" x1="-3537.6506" y1="691.2744" x2="-3165.4998" y2="476.4105" gradientTransform="matrix(-1 0 0 1 -3136.71 -369.0978)">
			<stop  offset="7.000000e-02" style="stop-color:#F8E1AB"/>
			<stop  offset="0.12" style="stop-color:#FFF3C5"/>
			<stop  offset="0.28" style="stop-color:#DCB272"/>
			<stop  offset="0.33" style="stop-color:#D3A263"/>
			<stop  offset="0.39" style="stop-color:#C7A44C"/>
			<stop  offset="0.66" style="stop-color:#EBDF91"/>
			<stop  offset="0.73" style="stop-color:#F2E4C4"/>
			<stop  offset="0.95" style="stop-color:#D0983F"/>
			<stop  offset="1" style="stop-color:#A2822E"/>
		</linearGradient>
		<path class="st1" d="M214.8,429.5C96.2,429.6,0,333.5-0.1,215c0-57,22.6-111.7,63-152.1c83.8-83.9,219.8-84,303.8-0.2
			s84,219.8,0.2,303.8C326.5,406.9,271.8,429.5,214.8,429.5z M214.8,6.2C99.8,6.2,6.2,99.8,6.2,214.7s93.5,208.5,208.5,208.5
			s208.5-93.5,208.5-208.5S329.7,6.2,214.8,6.2z"/>
	</g>
	<path class="st2" d="M340.6,193.3L317.3,170l0,0l-92.9-93c-5.5-5.5-14.3-5.5-19.8,0c0,0,0,0,0,0l-93.1,93l0,0l-23.4,23.4
		c-2.3,2.4-2.1,6.2,0.3,8.5c2.3,2.1,5.9,2.1,8.2,0l13.1-13.1v126.2c0,7.7,6.3,14,14,14l0,0h54.6c7.7,0,14-6.3,14-14l0,0v-80
		c0-1.1,0.9-2,2-2h40c1.1,0,2,0.9,2,2v80c0,7.7,6.3,14,14,14l0,0h54.7c7.7,0,14-6.3,14-14l0,0V188.7l13.1,13.1
		c2.4,2.3,6.2,2.1,8.5-0.3C342.8,199.2,342.8,195.6,340.6,193.3z M307.1,314.9c0,1.1-0.9,2-2,2h-54.7c-1.1,0-2-0.9-2-2v-80
		c0-7.7-6.3-14-14-14h-40c-7.7,0-14,6.3-14,14v80c0,1.1-0.9,2-2,2h-54.6c-1.1,0-2-0.9-2-2V176.7L213,85.5c0.8-0.8,2-0.8,2.8,0
		l91.3,91.3L307.1,314.9z"/>
</g>
</svg>
