<?xml version="1.0" encoding="utf-8"?>
<!-- Generator: Adobe Illustrator 25.3.1, SVG Export Plug-In . SVG Version: 6.00 Build 0)  -->
<svg version="1.1" id="Layer_1" xmlns="http://www.w3.org/2000/svg" xmlns:xlink="http://www.w3.org/1999/xlink" x="0px" y="0px"
	 viewBox="0 0 2834.6 1984.2" style="enable-background:new 0 0 2834.6 1984.2;" xml:space="preserve">
<style type="text/css">
	.st0{fill:#FEF0EE;stroke:#272726;stroke-linecap:round;stroke-linejoin:round;stroke-miterlimit:10;}
	.st1{fill:url(#SVGID_1_);}
</style>
<circle class="st0" cx="1447" cy="552.1" r="191"/>
<linearGradient id="SVGID_1_" gradientUnits="userSpaceOnUse" x1="2882.7717" y1="-524.8626" x2="3254.8088" y2="-739.6583" gradientTransform="matrix(-1 0 0 1 4515.79 1184.9004)">
	<stop  offset="7.440000e-02" style="stop-color:#F8E1AB"/>
	<stop  offset="0.1154" style="stop-color:#FFF3C5"/>
	<stop  offset="0.2846" style="stop-color:#DCB272"/>
	<stop  offset="0.3308" style="stop-color:#D3A263"/>
	<stop  offset="0.3923" style="stop-color:#C7A44C"/>
	<stop  offset="0.6641" style="stop-color:#EBDF91"/>
	<stop  offset="0.7308" style="stop-color:#F2E4C4"/>
	<stop  offset="0.9462" style="stop-color:#D0983F"/>
	<stop  offset="1" style="stop-color:#A2822E"/>
</linearGradient>
<path class="st1" d="M1447,767.4c-29,0-57.1-5.7-83.6-16.9c-25.6-10.8-48.5-26.3-68.3-46c-19.7-19.7-35.2-42.7-46-68.3
	c-11.2-26.5-16.9-54.6-16.9-83.6s5.7-57.1,16.9-83.6c10.8-25.6,26.3-48.5,46-68.3s42.7-35.2,68.3-46c26.5-11.2,54.6-16.9,83.6-16.9
	s57.1,5.7,83.6,16.9c25.6,10.8,48.5,26.3,68.3,46s35.2,42.7,46,68.3c11.2,26.5,16.9,54.6,16.9,83.6s-5.7,57.1-16.9,83.6
	c-10.8,25.6-26.3,48.5-46,68.3c-19.7,19.7-42.7,35.2-68.3,46C1504.1,761.7,1476,767.4,1447,767.4z M1447,344.1
	c-115,0-208.5,93.5-208.5,208.5S1332,761.1,1447,761.1s208.5-93.5,208.5-208.5C1655.5,437.7,1562,344.1,1447,344.1L1447,344.1z"/>
<image style="overflow:visible;" width="1024" height="1024" xlink:href="pngwing.com.png"  transform="matrix(0.3176 0 0 0.3176 1292.6522 361.06)">
</image>
</svg>
